<svg xmlns="http://www.w3.org/2000/svg" viewBox="0 0 64 64">
  <title>Travel Roots</title>
  <rect width="64" height="64" rx="18" fill="#1f4d3a"/>
  <path d="M32 59.5c-7.3-8.3-18-18.8-18-32a18 18 0 0 1 36 0c0 13.2-10.7 23.7-18 32Z" fill="#f7f4ee"/>
  <path d="M32 33.5V22.8" fill="none" stroke="#1f4d3a" stroke-width="2.6" stroke-linecap="round"/>
  <path d="M32 27c-6.2 0-10-3.6-10-9.1 5.9 0 10 3.1 10 9.1Z" fill="#1f4d3a"/>
  <path d="M32 24.1c0-6.3 3.7-10.2 10-10.2 0 6-3.9 10.2-10 10.2Z" fill="#2f7a59"/>
  <path d="M22.5 33.5h19" fill="none" stroke="#b4532c" stroke-width="2.6" stroke-linecap="round"/>
  <path d="M32 33.5v9.5M32 36c-1.2 2.6-3.2 4.4-6 5.6M32 36c1.2 2.6 3.2 4.4 6 5.6M28.6 39.2c-.4 1.6-1.4 2.9-2.9 3.9M35.4 39.2c.4 1.6 1.4 2.9 2.9 3.9" fill="none" stroke="#b4532c" stroke-width="2" stroke-linecap="round"/>
</svg>
